<svg id="visual" viewBox="0 0 900 600" width="900" height="600" xmlns="http://www.w3.org/2000/svg" xmlns:xlink="http://www.w3.org/1999/xlink" version="1.1"><rect x="0" y="0" width="900" height="600" fill="#001220"></rect><path d="M0 413L21.5 404.5C43 396 86 379 128.8 376.8C171.7 374.7 214.3 387.3 257.2 392.8C300 398.3 343 396.7 385.8 390.5C428.7 384.3 471.3 373.7 514.2 380.7C557 387.7 600 412.3 642.8 425.2C685.7 438 728.3 439 771.2 434.2C814 429.3 857 418.7 878.5 413.3L900 408L900 601L878.5 601C857 601 814 601 771.2 601C728.3 601 685.7 601 642.8 601C600 601 557 601 514.2 601C471.3 601 428.7 601 385.8 601C343 601 300 601 257.2 601C214.3 601 171.7 601 128.8 601C86 601 43 601 21.5 601L0 601Z" fill="#fa7268"></path><path d="M0 477L21.5 473.2C43 469.3 86 461.7 128.8 459.8C171.7 458 214.3 462 257.2 453.3C300 444.7 343 423.3 385.8 421.7C428.7 420 471.3 438 514.2 445.3C557 452.7 600 449.3 642.8 445.8C685.7 442.3 728.3 438.7 771.2 436C814 433.3 857 431.7 878.5 430.8L900 430L900 601L878.5 601C857 601 814 601 771.2 601C728.3 601 685.7 601 642.8 601C600 601 557 601 514.2 601C471.3 601 428.7 601 385.8 601C343 601 300 601 257.2 601C214.3 601 171.7 601 128.8 601C86 601 43 601 21.5 601L0 601Z" fill="#ef5f67"></path><path d="M0 449L21.5 455.7C43 462.3 86 475.7 128.8 474.5C171.7 473.3 214.3 457.7 257.2 460.3C300 463 343 484 385.8 489.3C428.7 494.7 471.3 484.3 514.2 483.7C557 483 600 492 642.8 488.7C685.7 485.3 728.3 469.7 771.2 467C814 464.3 857 474.7 878.5 479.8L900 485L900 601L878.5 601C857 601 814 601 771.2 601C728.3 601 685.7 601 642.8 601C600 601 557 601 514.2 601C471.3 601 428.7 601 385.8 601C343 601 300 601 257.2 601C214.3 601 171.7 601 128.8 601C86 601 43 601 21.5 601L0 601Z" fill="#e34c67"></path><path d="M0 541L21.5 534.2C43 527.3 86 513.7 128.8 507C171.7 500.3 214.3 500.7 257.2 503.3C300 506 343 511 385.8 508C428.7 505 471.3 494 514.2 495.8C557 497.7 600 512.3 642.8 513.7C685.7 515 728.3 503 771.2 500.5C814 498 857 505 878.5 508.5L900 512L900 601L878.5 601C857 601 814 601 771.2 601C728.3 601 685.7 601 642.8 601C600 601 557 601 514.2 601C471.3 601 428.7 601 385.8 601C343 601 300 601 257.2 601C214.3 601 171.7 601 128.8 601C86 601 43 601 21.5 601L0 601Z" fill="#d53867"></path><path d="M0 564L21.5 559.5C43 555 86 546 128.8 546C171.7 546 214.3 555 257.2 559.8C300 564.7 343 565.3 385.8 560.7C428.7 556 471.3 546 514.2 544C557 542 600 548 642.8 550.7C685.7 553.3 728.3 552.7 771.2 553.8C814 555 857 558 878.5 559.5L900 561L900 601L878.5 601C857 601 814 601 771.2 601C728.3 601 685.7 601 642.8 601C600 601 557 601 514.2 601C471.3 601 428.7 601 385.8 601C343 601 300 601 257.2 601C214.3 601 171.7 601 128.8 601C86 601 43 601 21.5 601L0 601Z" fill="#c62368"></path></svg>