<svg id="visual" viewBox="0 0 900 600" width="900" height="600" xmlns="http://www.w3.org/2000/svg" xmlns:xlink="http://www.w3.org/1999/xlink" version="1.1"><rect x="0" y="0" width="900" height="600" fill="#eeeeee"></rect><path d="M0 380L21.5 389.8C43 399.7 86 419.3 128.8 422.2C171.7 425 214.3 411 257.2 403.3C300 395.7 343 394.3 385.8 388.3C428.7 382.3 471.3 371.7 514.2 380.2C557 388.7 600 416.3 642.8 420.8C685.7 425.3 728.3 406.7 771.2 400.3C814 394 857 400 878.5 403L900 406L900 601L878.5 601C857 601 814 601 771.2 601C728.3 601 685.7 601 642.8 601C600 601 557 601 514.2 601C471.3 601 428.7 601 385.8 601C343 601 300 601 257.2 601C214.3 601 171.7 601 128.8 601C86 601 43 601 21.5 601L0 601Z" fill="#24c7b8"></path><path d="M0 419L21.5 419.8C43 420.7 86 422.3 128.8 432C171.7 441.7 214.3 459.3 257.2 464.3C300 469.3 343 461.7 385.8 458.3C428.7 455 471.3 456 514.2 452.5C557 449 600 441 642.8 434.5C685.7 428 728.3 423 771.2 425.8C814 428.7 857 439.3 878.5 444.7L900 450L900 601L878.5 601C857 601 814 601 771.2 601C728.3 601 685.7 601 642.8 601C600 601 557 601 514.2 601C471.3 601 428.7 601 385.8 601C343 601 300 601 257.2 601C214.3 601 171.7 601 128.8 601C86 601 43 601 21.5 601L0 601Z" fill="#00b6e9"></path><path d="M0 497L21.5 496.8C43 496.7 86 496.3 128.8 498.5C171.7 500.7 214.3 505.3 257.2 505.5C300 505.7 343 501.3 385.8 499C428.7 496.7 471.3 496.3 514.2 488C557 479.7 600 463.3 642.8 455C685.7 446.7 728.3 446.3 771.2 450C814 453.7 857 461.3 878.5 465.2L900 469L900 601L878.5 601C857 601 814 601 771.2 601C728.3 601 685.7 601 642.8 601C600 601 557 601 514.2 601C471.3 601 428.7 601 385.8 601C343 601 300 601 257.2 601C214.3 601 171.7 601 128.8 601C86 601 43 601 21.5 601L0 601Z" fill="#0096ff"></path><path d="M0 496L21.5 502.3C43 508.7 86 521.3 128.8 522.7C171.7 524 214.3 514 257.2 508C300 502 343 500 385.8 498.2C428.7 496.3 471.3 494.7 514.2 494.3C557 494 600 495 642.8 501.8C685.7 508.7 728.3 521.3 771.2 523.5C814 525.7 857 517.3 878.5 513.2L900 509L900 601L878.5 601C857 601 814 601 771.2 601C728.3 601 685.7 601 642.8 601C600 601 557 601 514.2 601C471.3 601 428.7 601 385.8 601C343 601 300 601 257.2 601C214.3 601 171.7 601 128.8 601C86 601 43 601 21.5 601L0 601Z" fill="#0068ff"></path><path d="M0 546L21.5 543.2C43 540.3 86 534.7 128.8 539.3C171.7 544 214.3 559 257.2 565.3C300 571.7 343 569.3 385.8 569.3C428.7 569.3 471.3 571.7 514.2 570.5C557 569.3 600 564.7 642.8 560.2C685.7 555.7 728.3 551.3 771.2 547.8C814 544.3 857 541.7 878.5 540.3L900 539L900 601L878.5 601C857 601 814 601 771.2 601C728.3 601 685.7 601 642.8 601C600 601 557 601 514.2 601C471.3 601 428.7 601 385.8 601C343 601 300 601 257.2 601C214.3 601 171.7 601 128.8 601C86 601 43 601 21.5 601L0 601Z" fill="#2b1ff3"></path></svg>